<?xml version="1.0" encoding="utf-8"?>
<!-- Generator: Adobe Illustrator 23.1.0, SVG Export Plug-In . SVG Version: 6.00 Build 0)  -->
<svg version="1.1" id="Layer_1" xmlns="http://www.w3.org/2000/svg" xmlns:xlink="http://www.w3.org/1999/xlink" x="0px" y="0px"
	 viewBox="0 0 171.46 213.87" style="enable-background:new 0 0 171.46 213.87;" xml:space="preserve">
<style type="text/css">
	.st0{fill:#6AC0AA;}
</style>
<g>
	<path class="st0" d="M70.34,18.68c-0.15,1.01,0.56,1.94,1.61,2.09c0.07,0,5.45,0.82,10.87,5.01c-2.95,3.48-7.55,5.2-12.52,4.52
		c-5.45-0.75-9.94-4.22-11.66-9.08C56.58,15.32,54.83,8.74,54,5.68c11.02-3.1,19.1-2.51,24.03,1.68c4.6,3.92,5.53,10.32,5.61,14.35
		v0.04c-5.65-3.85-10.88-4.63-11.21-4.67C71.34,16.93,70.45,17.67,70.34,18.68"/>
	<path class="st0" d="M143.24,48.95c-2.28,8.41-9.41,12.67-14.84,13.79c-2.84,0.56-5.45,0.33-7.32-0.56c0,0-0.03,0-0.03-0.04
		c12.4-6.83,12.82-16.4,12.82-16.97c0.04-1.01-0.79-1.87-1.79-1.9c-1.01,0.04-1.9,0.79-1.94,1.83c0,0.48-0.52,8.71-12.29,14.53
		c-1.98-1.6-6.76-6.61-3.66-15.91c1.91-5.65,6.69-8,11.77-10.47c4.37-2.17,8.9-4.37,10.91-8.78
		C140.18,29.22,145.9,39.2,143.24,48.95"/>
	<path class="st0" d="M42.01,47.72c-0.04,4.44-1.42,7.92-4,10.35c-3.48,3.29-9.49,4.75-16.03,3.89c-4.37-0.56-8.97-0.71-12.71-0.71
		c-1.95,0-3.63,0.04-4.9,0.07c3.29-11.77,7.25-23.2,20.1-24.47c11.1-1.13,15.32,4.22,16.74,7.21c-9.01,1.49-15.06,4.71-15.47,4.9
		c-0.9,0.48-1.24,1.64-0.75,2.54c0.48,0.9,1.64,1.23,2.54,0.75C27.62,52.2,33.42,49.14,42.01,47.72"/>
	<path d="M94.22,34.45c-1.9-4.18-4.37-7.32-6.91-9.75c0.3-3.51,0.41-13.97-6.8-20.14c-6.24-5.34-16.07-5.98-29.3-1.94
		c-0.94,0.3-1.49,1.27-1.27,2.24c0.04,0.07,2.36,9.49,5.2,17.6c2.17,6.2,7.81,10.62,14.69,11.55c0.86,0.11,1.72,0.15,2.54,0.15
		c5.15,0,9.98-2.13,13.26-5.87c1.91,2.02,3.74,4.52,5.2,7.7c0.3,0.67,0.97,1.09,1.68,1.09c0.26,0,0.52-0.04,0.79-0.15
		C94.22,36.47,94.63,35.39,94.22,34.45 M83.64,21.74C78,17.9,72.76,17.11,72.43,17.08c-1.09-0.15-1.98,0.6-2.09,1.6
		c-0.15,1.01,0.56,1.94,1.61,2.09c0.08,0,5.45,0.82,10.88,5.01c-2.96,3.48-7.55,5.19-12.53,4.52c-5.45-0.75-9.94-4.23-11.66-9.08
		c-2.05-5.9-3.81-12.48-4.63-15.55c11.02-3.1,19.09-2.5,24.03,1.68c4.6,3.93,5.53,10.32,5.6,14.35V21.74z"/>
	<path d="M171.43,135.27c0-0.11,0-0.22-0.04-0.33c-0.04-0.04-0.04-0.11-0.04-0.18c-0.03-0.08-0.11-0.11-0.15-0.19
		c-0.03-0.07-0.03-0.11-0.07-0.18c0-0.04-0.04-0.04-0.08-0.08c-0.03-0.04-0.07-0.07-0.11-0.15c-0.04-0.04-0.11-0.07-0.19-0.15
		c-0.11-0.07-0.18-0.11-0.26-0.18c-0.04,0-0.08-0.04-0.11-0.08c-28.63-13.19-36.33-40.77-36.4-41.03c-0.04-0.04-0.08-0.08-0.08-0.15
		c-0.04-0.11-0.11-0.19-0.15-0.3c-0.03-0.04-0.03-0.08-0.07-0.15l-0.04-0.04l-0.11-0.11c-0.07-0.07-0.15-0.14-0.26-0.22l-0.15-0.14
		c-0.07-0.04-0.11-0.04-0.18-0.08c-0.04,0-0.08-0.04-0.15-0.07l-48.92-17.9c3.78-2.77,8.63-4.48,14.5-5.09
		c7.92-0.78,14.01-2.43,18.79-4.44c0.04,0,0.04,0.04,0.04,0.04c1.98,1.79,4.82,2.72,8.11,2.72c1.23,0,2.54-0.11,3.85-0.37
		c6.47-1.34,14.99-6.43,17.71-16.48c4.15-15.32-8.89-30.23-9.45-30.84c-0.48-0.56-1.27-0.79-1.98-0.56
		c-0.71,0.22-1.19,0.86-1.27,1.6c-0.48,4.9-4.07,6.92-9.86,9.75c-5.31,2.58-11.28,5.53-13.67,12.67c-3.22,9.56,0.67,15.7,3.51,18.64
		c-4.22,1.58-9.45,2.88-16.15,3.55c-7.58,0.79-13.67,3.21-18.27,7.29l-0.86-0.33c0.08-5.12-0.93-10.76-3.59-15.73
		c-3.44-6.54-9-10.68-16.03-11.92c-5.08-0.9-9.86-0.94-14.16-0.52c-1.38-3.33-5.75-10.58-17.82-10.58c-0.97,0-2.02,0.04-3.14,0.15
		C7.82,34.71,3.52,50.29,0.08,62.81c-0.18,0.6-0.03,1.24,0.33,1.68c0.38,0.48,1.01,0.75,1.58,0.67c0.11,0,10.57-0.67,19.51,0.52
		c1.01,0.11,2.46,0.26,4.14,0.26c4.37,0,10.47-0.93,14.95-5.15c3.48-3.29,5.2-7.85,5.16-13.53c3.93-0.37,8.26-0.34,12.86,0.45
		c7.36,1.3,11.36,6.17,13.38,10.01c2.09,3.96,3.02,8.44,3.14,12.63l-15.03-5.49c-0.6-0.22-1.19-0.15-1.72,0.22L11.03,98.13
		c-0.75,0.26-1.27,0.94-1.27,1.76v61.29c0,0.52,0.22,1.01,0.6,1.34c0.79,3.59,2.95,6.81,8.93,8.82c0,0.04,0.03,0.04,0.03,0.04
		l1.72,0.6c-0.45,2.13-0.52,4.37-0.3,6.62c0.49,4.6,2.32,8.78,5.16,11.77c2.65,2.8,5.9,4.33,9.26,4.33c0.41,0,0.82-0.04,1.2-0.07
		c3.78-0.37,7.1-2.65,9.34-6.36c1.2-1.98,2.02-4.22,2.43-6.61l25.3,9.04c-0.56,2.24-0.71,4.64-0.45,7.1
		c0.94,9.12,7.32,16.07,14.46,16.07c0.38,0,0.75-0.04,1.16-0.07c6.09-0.64,10.77-6.24,11.81-13.46l5.75,2.06h0.04
		c2.09,0.75,4.14,1.12,6.05,1.12c2.21,0,4.19-0.52,5.91-1.53c0.18-0.04,0.37-0.04,0.52-0.15l47.68-33.26
		c0.37-0.3,0.6-0.67,0.71-1.08c2.21-1.75,4.37-4.97,4.37-10.91v-21.12C171.46,135.39,171.43,135.35,171.43,135.27 M114.17,43.72
		c1.9-5.64,6.69-8,11.77-10.47c4.37-2.17,8.9-4.37,10.91-8.78c3.33,4.75,9.05,14.73,6.39,24.48c-2.28,8.41-9.41,12.67-14.83,13.79
		c-2.84,0.56-5.46,0.33-7.32-0.56c0,0-0.04,0-0.04-0.04c12.41-6.83,12.82-16.4,12.82-16.96c0.04-1.01-0.78-1.87-1.79-1.91
		c-1.01,0.04-1.91,0.79-1.95,1.83c0,0.48-0.52,8.71-12.29,14.54C115.85,58.04,111.07,53.02,114.17,43.72 M38.01,58.07
		c-3.48,3.29-9.49,4.75-16.03,3.89c-4.37-0.56-8.97-0.71-12.71-0.71c-1.94,0-3.63,0.04-4.9,0.08c3.29-11.77,7.25-23.21,20.1-24.48
		c11.1-1.12,15.32,4.22,16.74,7.21c-9.01,1.49-15.06,4.71-15.47,4.9c-0.9,0.48-1.24,1.64-0.75,2.54c0.48,0.9,1.64,1.23,2.54,0.75
		c0.08-0.04,5.87-3.11,14.47-4.52C41.97,52.16,40.59,55.64,38.01,58.07 M59.72,68.72l15.21,5.53c-0.22,2.47-0.75,4.67-1.53,6.43
		c-0.75,1.61-1.31,3.21-1.76,4.86l-10.35-3.78c-0.08,0-0.11,0-0.15-0.04c-0.11,0-0.22-0.04-0.33-0.04c-0.04,0-0.11-0.03-0.15-0.03
		h-0.07c-0.04,0-0.11,0.03-0.19,0.03c-0.07,0-0.18,0.04-0.3,0.08c-0.07,0.03-0.15,0.03-0.22,0.07c-0.04,0-0.07,0.04-0.15,0.08
		c-0.03,0.03-0.11,0.03-0.15,0.07L42.72,93.72c-0.04,0.07-0.08,0.11-0.11,0.15c-0.12,0.11-0.19,0.18-0.27,0.26
		c-0.07,0.11-0.14,0.22-0.18,0.33c-0.04,0.07-0.08,0.11-0.11,0.15c0,0.07,0,0.11-0.04,0.18c0,0.11-0.04,0.23-0.04,0.34v0.37
		c0,0.11,0.04,0.22,0.08,0.33c0.03,0.11,0.11,0.22,0.15,0.34c0.03,0.03,0.03,0.11,0.07,0.15l0.11,0.11
		c0.11,0.14,0.26,0.26,0.45,0.37c0.07,0.04,0.14,0.12,0.22,0.15c0.04,0,0.07,0.04,0.11,0.04l16.55,6.09
		c0.11,0.03,0.22,0.07,0.34,0.11l20.44,7.48c0.18,0.07,0.41,0.11,0.63,0.11c0.11,0,0.22-0.07,0.3-0.07
		c0.26-0.08,0.56-0.11,0.75-0.26l17.04-11.74h0.03c0.3-0.22,0.49-0.52,0.6-0.82c0.04-0.04,0.08-0.04,0.08-0.07
		c0.03-0.08,0-0.11,0.03-0.15c0.04-0.15,0.04-0.26,0.04-0.41c0-0.11,0.04-0.22,0-0.33c0-0.12-0.04-0.23-0.07-0.34
		c-0.04-0.11-0.08-0.22-0.15-0.33c-0.04-0.04-0.04-0.11-0.08-0.15c-0.03-0.07-0.07-0.07-0.15-0.15c-0.07-0.07-0.15-0.15-0.26-0.22
		c-0.07-0.11-0.18-0.19-0.33-0.22c-0.04-0.04-0.07-0.08-0.15-0.11l-23.62-8.59c0.75-2.92,1.94-5.83,3.81-8.45
		c0.52-0.71,1.05-1.38,1.65-2.02l47.38,17.34l-43.91,30.68l-68.32-25L59.72,68.72z M94.14,97.68l-13.27,9.16l-6.17-2.24
		c-0.41-2.17-1.16-7.85-0.26-14.05L94.14,97.68z M70.67,103.14l-8.22-3.02l0.04-13.94l8.37,3.07
		C69.93,94.77,70.26,99.93,70.67,103.14 M58.75,87.1l-0.04,11.62L47.8,94.77L58.75,87.1z M44.55,180.38
		c-0.26,2.17-0.97,4.22-2.02,5.94c-1.64,2.7-3.96,4.3-6.54,4.6c-2.62,0.22-5.23-0.86-7.36-3.14c-2.28-2.39-3.77-5.79-4.15-9.57
		c-0.18-1.68-0.15-3.36,0.15-4.93c0.19-1.27,0.56-2.51,1.05-3.63c0.23-0.6,0.52-1.16,0.86-1.68c1.65-2.69,3.97-4.3,6.54-4.56
		c0.26-0.04,0.52-0.04,0.78-0.04c2.36,0,4.63,1.09,6.58,3.14c2.28,2.39,3.78,5.83,4.19,9.56c0,0.11,0.03,0.22,0.03,0.34
		C44.78,177.77,44.74,179.08,44.55,180.38 M96.87,199.07c-0.64,5.9-4.07,10.5-8.67,11.02c-5.53,0.53-10.73-5.12-11.51-12.71
		c-0.18-1.91-0.11-3.74,0.23-5.45c0.26-1.27,0.63-2.47,1.16-3.55c1.53-3.25,4.11-5.45,7.25-5.79c0.26-0.03,0.52-0.03,0.79-0.03
		c2.32,0,4.63,1.08,6.58,3.14c2.24,2.39,3.66,5.68,4.11,9.37c0.03,0.08,0.03,0.12,0.03,0.19C96.98,196.56,96.98,197.83,96.87,199.07
		 M120.08,190.25c0,3.89-1.16,6.72-3.29,8.22c-2.24,1.57-5.6,1.72-9.34,0.41h-0.04l-6.8-2.43c0-0.52-0.04-1.05-0.07-1.57
		c-0.45-4.56-2.28-8.74-5.12-11.77c-2.99-3.14-6.69-4.67-10.5-4.26c-4.52,0.48-8.26,3.7-10.28,8.29l-26.2-9.34
		c0-0.71-0.04-1.38-0.11-2.09c-0.48-4.6-2.32-8.74-5.16-11.77c-2.99-3.14-6.69-4.67-10.47-4.26c-3.77,0.41-7.1,2.65-9.34,6.35
		c-0.45,0.75-0.86,1.53-1.23,2.36l-1.57-0.56h-0.04c-6.91-2.35-6.91-5.9-6.87-11.81v-53.44l69.32,25.34
		c1.57,5.01,10.31,29.04,37.11,41.96V190.25z M86.67,127.21l44.36-30.95c2.54,7.14,11.59,27.5,34.9,39.46l-44.17,30.87
		C97.32,154.82,88.5,132.66,86.67,127.21 M167.72,156.58c0,4.15-1.27,7.06-3.7,8.52c-0.45,0.27-0.75,0.67-0.86,1.12l-39.72,27.73
		c0,0,0-0.04,0.03-0.07c0.19-0.3,0.34-0.64,0.34-1.01V169.7l43.91-30.65V156.58z"/>
</g>
</svg>
